<svg xmlns="http://www.w3.org/2000/svg" xmlns:xlink="http://www.w3.org/1999/xlink" width="50" height="50" viewBox="0 0 50 50">
  <defs>
    <clipPath id="clip-Artboard_1">
      <rect width="50" height="50"/>
    </clipPath>
  </defs>
  <g id="Artboard_1" data-name="Artboard – 1" clip-path="url(#clip-Artboard_1)">
    <g id="Asset_21" data-name="Asset 21" transform="translate(-0.08 1.016)">
      <g id="Layer_1" data-name="Layer 1" transform="translate(0.08 -0.016)">
        <path id="Path_10" data-name="Path 10" d="M25.132,9.33a3.3,3.3,0,0,0,.294.41q9.122,9,18.142,17.92a1.1,1.1,0,0,1,.334.66q0,8.93,0,17.87v.34H6.19V28.38a.923.923,0,0,1,.223-.61Q15.656,18.62,24.92,9.5ZM37.6,24.9H12.524v3H37.6Zm0,12.4H12.524v3.05H37.6Zm0-6.19H12.524v3H37.6Z" transform="translate(-0.08 0.489)" fill="#006643"/>
        <path id="Path_11" data-name="Path 11" d="M25.344,7.77a.407.407,0,0,0-.616,0,.391.391,0,0,1-.081.1l-19.193,19a3.155,3.155,0,0,1-4.291.18,3.078,3.078,0,0,1-.436-4.23l.333-.36L22.707,1A3.052,3.052,0,0,1,26.182.23,3.141,3.141,0,0,1,27.273,1q10.91,10.77,21.809,21.57a3.08,3.08,0,0,1,.9,3.049,3.116,3.116,0,0,1-2.284,2.23,3.151,3.151,0,0,1-3.068-.929l-19.193-19Z" transform="translate(-0.08 0.016)" fill="#006643"/>
      </g>
    </g>
  </g>
</svg>
