<?xml version="1.0" encoding="utf-8"?>
<!-- Generator: Adobe Illustrator 19.1.0, SVG Export Plug-In . SVG Version: 6.00 Build 0)  -->
<svg version="1.1" id="Layer_1" xmlns="http://www.w3.org/2000/svg" xmlns:xlink="http://www.w3.org/1999/xlink" x="0px" y="0px"
	 width="316px" height="140px" viewBox="-801 86 316 140" style="enable-background:new -801 86 316 140;" xml:space="preserve">
<style type="text/css">
	.st1{opacity:0.58;}
	.st2{fill:#F4AE1C;}
	.st3{fill:#026744;}
	.st4{fill:#FFFFFF;stroke:#006643;stroke-miterlimit:10;}
	.st5{fill:none;stroke:#FAB416;stroke-width:3.2127;stroke-miterlimit:10;}
</style>

<g id="Layer_2" class="st1">
	<g id="Layer_1-2">
		<path class="st2" d="M-690.4,140.5v-7.4c0-1.6,0-3,0-4.6c0-0.5,0.2-0.9,0.6-1.3l17.4-14.2c0.5-0.5,1.1-0.6,1.7-0.2
			c0.2,0,0.2,0.2,0.2,0.2c2.7,2.7,5.2,5.4,7.9,8c0.5,0.5,0.6,1.1,0.6,1.7c0,7.9,0,15.8,0,23.7v0.9c0.3-0.2,0.5-0.3,0.6-0.5
			c2.1-1.3,4.3-2.7,6.3-3.9c0.5-0.3,1.1-0.3,1.6,0c2.2,1.1,4.4,2.4,6.8,3.5c0.6,0.3,1.1,0.9,1.1,1.7c0,13.3,0,26.5,0,39.8v0.9h6.6
			c0.6-0.2,1.3,0.3,1.3,0.9c0,0.2,0,0.2,0,0.3c0,0.9,0,2.1,0,3c0,0.9-0.3,1.3-1.3,1.3h-76.7c-0.8,0-1.3-0.5-1.3-1.3
			c0-0.8,0-2.2,0.2-3.2c0-0.8,0.5-1.1,1.3-1.1h6.5V188c0-14,0-28.1,0-42.1c0-0.8,0.3-1.6,1.1-2.1c3.2-2.2,6.3-4.3,9.5-6.5
			c0.5-0.3,1.1-0.3,1.6,0C-695,138.4-692.8,139.4-690.4,140.5z M-673.5,188.9h9.2c0-0.3,0-0.5,0-0.6c0-21.6,0-43.4,0-65
			c0-0.5-0.2-0.8-0.5-1.1c-2.1-2.2-4.3-4.4-6.3-6.5c-0.2-0.2-0.3-0.3-0.5-0.5c-1.3,0.5-2.1,1.7-1.9,3.2c0,23.2,0,46.4,0,69.6
			C-673.5,188-673.5,188.9-673.5,188.9z M-690.6,188.9c0-0.3,0-0.5,0-0.6c0-14.8,0-29.8,0-44.6c0-0.5-0.2-0.8-0.6-0.9
			c-1.7-0.8-3.3-1.6-5-2.4c-0.2,0-0.3-0.2-0.6-0.2v48.9h6.3L-690.6,188.9C-690.5,188.9-690.6,188.9-690.6,188.9z M-662.2,188.9
			c2.1,0,3.8,0,5.7,0c0.8,0,0.9-0.2,0.9-0.9c0-13.7,0-27.5,0-41.2v-0.9c-0.3,0.2-0.6,0.3-0.8,0.5c-1.7,1.1-3.3,2.2-5,3.3
			c-0.5,0.3-0.8,0.8-0.8,1.4c0,12.3,0,24.6,0,37.1V188.9z M-714.7,192.4h74.6v-1.3h-74.6V192.4z"/>
	</g>
</g>
<g id="Layer_1-2_7_">
	<path class="st3" d="M-627.7,212.1h-44.5c-3.7,0-4.2-0.8-3.7-4.2c0.8-5.9,1.6-11.2,2.8-17.1c0.8-3.7,2.8-6.7,6.1-8.4
		c6.1-3.4,12.3-6.7,18.7-9.8c1.4-0.3,2.8,0.3,3.9,1.1c9.3,7.2,20.5,8.4,29.9,2.2c1.4-0.8,2.8-1.6,3.9-2.8c1.1-1.1,2.8-1.1,3.9-0.3
		c5.6,2.8,11.2,5.9,16.8,8.7c4.2,2.2,7.2,6.1,7.8,11.2c0.5,4.8,1.4,9.8,2.2,14.9c0.5,3.4-0.3,4.2-3.7,4.2h-44.3v0.3L-627.7,212.1
		L-627.7,212.1z"/>
	<path class="st3" d="M-608,153.6c-0.5,1.4-6.4,16-18.7,16.2c-10.6,0.3-17.9-10.1-20.5-17.3c-0.8-2.2-3.1-9.3,0.3-17.6
		c2.8-7.2,10.4-16.8,20.7-16.2c12,0.5,17.9,14.3,18.4,15.4C-604.5,143.3-607.2,151.4-608,153.6z"/>
</g>
<path class="st4" d="M-574.6,221.5h-21.2c-6.6,0-11.9-5.4-11.9-11.9v-21.2c0-6.6,5.4-11.9,11.9-11.9h21.2c6.6,0,11.9,5.4,11.9,11.9
	v21.2C-562.7,216.1-568.1,221.5-574.6,221.5z"/>
<path class="st5" d="M-597.9,197.5c2.9-2.3-1.4,14,1.5,11.7c8.4-6.8,16.7-13.6,25.1-20.4"/>
</svg>
