<?xml version="1.0" encoding="utf-8"?>
<!-- Generator: Adobe Illustrator 19.1.0, SVG Export Plug-In . SVG Version: 6.00 Build 0)  -->
<svg version="1.1" id="Layer_1" xmlns="http://www.w3.org/2000/svg" xmlns:xlink="http://www.w3.org/1999/xlink" x="0px" y="0px"
	 width="316px" height="140px" viewBox="-801 86 316 140" style="enable-background:new -801 86 316 140;" xml:space="preserve">
<style type="text/css">
	.st1{fill:#026744;}
	.st2{fill:#FFFFFF;stroke:#006643;stroke-miterlimit:10;}
	.st3{fill:none;stroke:#FAB416;stroke-width:3.2127;stroke-miterlimit:10;}
</style>
<g id="Layer_1-2_7_">
	<path class="st1" d="M-642.9,202.7h-44.5c-3.7,0-4.2-0.8-3.7-4.2c0.8-5.9,1.6-11.2,2.8-17.1c0.8-3.7,2.8-6.7,6.1-8.4
		c6.1-3.4,12.3-6.7,18.7-9.8c1.4-0.3,2.8,0.3,3.9,1.1c9.3,7.2,20.5,8.4,29.9,2.2c1.4-0.8,2.8-1.6,3.9-2.8c1.1-1.1,2.8-1.1,3.9-0.3
		c5.6,2.8,11.2,5.9,16.8,8.7c4.2,2.2,7.2,6.1,7.8,11.2c0.5,4.8,1.4,9.8,2.2,14.9c0.5,3.4-0.3,4.2-3.7,4.2h-44.3v0.3L-642.9,202.7
		L-642.9,202.7z"/>
	<path class="st1" d="M-623.2,144.3c-0.5,1.4-6.4,16-18.7,16.2c-10.6,0.3-17.9-10.1-20.5-17.3c-0.8-2.2-3.1-9.3,0.3-17.6
		c2.8-7.2,10.4-16.8,20.7-16.2c12,0.5,17.9,14.3,18.4,15.4C-619.7,133.9-622.4,142-623.2,144.3z"/>
</g>
<path class="st2" d="M-583.6,213.5h-21.2c-6.6,0-11.9-5.4-11.9-11.9v-21.2c0-6.6,5.4-11.9,11.9-11.9h21.2c6.6,0,11.9,5.4,11.9,11.9
	v21.2C-571.7,208.1-577.1,213.5-583.6,213.5z"/>
<path class="st3" d="M-605.9,189.5c2.9-2.3-1.4,14,1.5,11.7c8.4-6.8,16.7-13.6,25.1-20.4"/>
</svg>
