<?xml version="1.0" encoding="utf-8"?>
<!-- Generator: Adobe Illustrator 19.1.0, SVG Export Plug-In . SVG Version: 6.00 Build 0)  -->
<svg version="1.1" id="Layer_1" xmlns="http://www.w3.org/2000/svg" xmlns:xlink="http://www.w3.org/1999/xlink" x="0px" y="0px"
	 width="316px" height="140px" viewBox="-147 327 316 140" style="enable-background:new -147 327 316 140;" xml:space="preserve">
<style type="text/css">
	.st1{fill:#026744;}
	.st2{fill:#FFA100;}
</style>
<g>
	<path class="st1" d="M-26.8,419.1c2.5-3,5.6-3.2,9.2-2.4C-11.8,418-6,419,0,419.9c1.5,0.1,2.8,1,3.2,2.4c0.2,0.6,0.6,1.2,0.8,1.7
		c0.8,1.5,2.8,2.2,4.4,1.4c3.6-1.2,7.1-2.4,10.7-3.9l-5.5,0.9c-1.4,0.2-2.8,0.6-4.1,0.8c-2.3,0.5-4.5-0.9-5-3.1c0-0.1,0-0.2-0.1-0.3
		c0-0.6,0.2-1.2,0.7-1.5c5.9-5.3,13.1-8.8,21-10.1c0.9-0.2,1.8-0.2,2.7,0c6.7,2,13.3,4,20.2,6.1l-5,10.9c-0.3,0-0.5,0.1-0.6,0
		c-4.1-1.6-8.9-1.3-12.7,1.2c-6.1,3.3-12.4,6-18.7,9c-0.1,0-0.2,0.2-0.5,0.3H9.8c-5.9-2.4-11.9-4.8-17.7-7.4
		c-6.3-2.8-12.7-5.6-19-8.5v-0.7H-26.8z"/>
	<g id="Layer_2">
		<g>
			<g id="Layer_1-2_9_">
				<path class="st2" d="M20.2,378.3v13.4c-0.5,0-0.9,0.1-1.5,0.1c-14.6,0-29.3,0-43.9,0c-0.5,0-0.9,0-1.5-0.1
					c-0.1-4.6-0.1-9.1,0-13.6c0-0.6,0.8-1.2,1.2-1.7c0.3-0.6,0.8-0.7,1-1.2c1.4-4.8,2.8-9.7,4.1-14.6c0.1-1,0.8-1.8,1.7-2.3h30.4
					c1.2,0.3,2.1,1.4,2.2,2.7c1.3,4.8,2.7,9.6,4,14.4c0.1,0.3,0.3,0.8,0.6,1C19.2,377.1,19.7,377.8,20.2,378.3z M11,361.9h-28.2
					l-3.8,13.2h35.6C13.4,370.6,12.3,366.2,11,361.9z M-16.6,383.4c-0.1-1.8-1.6-3.2-3.5-3.2c-1.7,0.1-3.1,1.4-3.1,3.1
					c0,1.8,1.5,3.3,3.3,3.5l0,0C-18.1,386.7-16.6,385.3-16.6,383.4z M13.3,380.2c-1.8,0-3.3,1.5-3.3,3.2l0,0
					c-0.1,1.8,1.3,3.5,3.1,3.6s3.5-1.3,3.6-3.1c0-0.1,0-0.2,0-0.3C16.7,381.6,15.2,380.2,13.3,380.2z"/>
				<path class="st2" d="M20.2,403.5c-0.1,1.2-1.3,2-2.4,1.8c-0.1,0-0.1,0-0.2,0c-1.7-0.1-3.5,0-5.2,0s-2.4-0.6-2.4-2.4
					c0-1.4,0-2.8,0-4.1h-26.6c0,1.5,0,3,0,4.4c0,1.5-0.5,2.1-2.1,2.1c-2.1,0-4.1,0-6.1,0c-1,0-1.8-0.5-1.8-1.5c0-2.8,0-5.6,0-8.6
					h46.9C20.2,395,20.2,403.5,20.2,403.5z"/>
			</g>
		</g>
	</g>
</g>
</svg>
