<?xml version="1.0" encoding="utf-8"?>
<!-- Generator: Adobe Illustrator 19.1.0, SVG Export Plug-In . SVG Version: 6.00 Build 0)  -->
<svg version="1.1" id="Layer_1" xmlns="http://www.w3.org/2000/svg" xmlns:xlink="http://www.w3.org/1999/xlink" x="0px" y="0px"
	 width="400px" height="207px" viewBox="26 0 400 207" style="enable-background:new 26 0 400 207;" xml:space="preserve">
<style type="text/css">
	.st1{enable-background:new    ;}
	.st2{fill:#026744;}
	.st3{fill:#FFA100;}
</style>

<g class="st1">
	<path class="st2" d="M193.5,150.9c3.3-3.9,7.3-4.2,12-3.1c7.6,1.6,15.1,3,22.9,4.2c1.9,0.1,3.6,1.3,4.2,3.1c0.3,0.7,0.7,1.5,1,2.2
		c1,1.9,3.6,2.8,5.7,1.8c4.6-1.5,9.3-3.1,13.9-5.1l-7.2,1.2c-1.8,0.3-3.6,0.7-5.4,1c-3,0.6-5.8-1.2-6.4-4c0-0.1,0-0.3-0.1-0.4
		c0-0.7,0.3-1.5,0.9-1.9c7.6-6.9,17.1-11.4,27.2-13.2c1.2-0.3,2.4-0.3,3.4,0c8.7,2.5,17.2,5.2,26.2,7.9l-6.4,14.2
		c-0.4,0-0.6,0.1-0.7,0c-5.4-2.1-11.5-1.6-16.5,1.5c-7.9,4.3-16.2,7.8-24.2,11.7c-0.1,0-0.3,0.3-0.6,0.4h-2.2
		c-7.6-3.1-15.4-6.3-23-9.6c-8.2-3.6-16.5-7.3-24.7-11.1v-0.9l0,0L193.5,150.9L193.5,150.9z"/>
	<g id="Layer_1-2_6_">
		<path class="st3" d="M256,85.6l4.2-9.4h-18.5l4.2,9.4C249.1,84.8,252.7,84.8,256,85.6z"/>
		<path class="st3" d="M204.4,85.6l4.3-9.3H190l4.2,9.3C197.7,84.8,200.9,84.8,204.4,85.6z"/>
		<path class="st3" d="M198.6,108.3c0-7.3,3-14.1,8.1-19.1c-2.2-0.9-4.9-1.3-7.2-1.3c-10.9,0-19.7,8.8-19.7,19.7
			c0,10.9,9,19.7,19.7,19.7c2.1,0,4-0.3,6-0.9C200.8,121.5,198.6,115,198.6,108.3z"/>
		<path class="st3" d="M250.9,87.8c-2.4,0-4.9,0.4-7.2,1.5c10.2,9.7,10.9,26,1.6,36.6c-0.1,0.1-0.1,0.3-0.3,0.4c1.9,0.7,4,0.9,6,0.9
			c10.9,0,19.7-8.8,19.7-19.6C270.8,96.8,261.8,87.8,250.9,87.8z"/>
		<path class="st3" d="M231.5,80.8l5.4-11.8h-23.3l5.4,11.8C222.9,79.7,227.3,79.7,231.5,80.8z"/>
		<path class="st3" d="M225.2,83.6c-13.6,0-24.8,11.1-24.8,24.7c0,13.6,10.9,24.8,24.8,24.8S250,122,250,108.4
			S238.6,83.6,225.2,83.6z"/>
	</g>
	<path class="st2" d="M251.1,56.1c-3,3.9-6.7,4.2-11.1,3.1c-7-1.6-14.1-3-21.1-4.2c-1.8-0.1-3.3-1.3-3.9-3.1c-0.3-0.7-0.6-1.5-1-2.2
		c-1-1.9-3.3-2.8-5.2-1.8c-4.3,1.5-8.7,3.1-12.7,5.1l6.6-1.2c1.6-0.3,3.3-0.7,4.9-1c2.7-0.6,5.4,1.2,6,4c0,0.1,0,0.3,0,0.4
		c0,0.7-0.3,1.5-0.9,1.9c-7,6.7-15.7,11.4-25.1,13.2c-1,0.3-2.2,0.3-3.3,0c-7.9-2.5-15.9-5.2-24.2-7.9l6-14.2c0.4,0,0.6-0.1,0.7,0
		c4.9,2.1,10.6,1.6,15.3-1.5c7.2-4.2,15-7.8,22.4-11.7c0.1,0,0.3-0.3,0.4-0.4h2.1c7,3.1,14.2,6.3,21.2,9.6
		c7.6,3.6,15.1,7.3,22.7,11.1L251.1,56.1L251.1,56.1z"/>
</g>
</svg>
