<?xml version="1.0" encoding="utf-8"?>
<!-- Generator: Adobe Illustrator 19.1.0, SVG Export Plug-In . SVG Version: 6.00 Build 0)  -->
<svg version="1.1" id="Layer_1" xmlns="http://www.w3.org/2000/svg" xmlns:xlink="http://www.w3.org/1999/xlink" x="0px" y="0px"
	 width="316px" height="140px" viewBox="-147 327 316 140" style="enable-background:new -147 327 316 140;" xml:space="preserve">
<style type="text/css">

	.st1{fill:#026744;}
	.st2{fill:#FFA100;}
</style>

<g>
	<path class="st1" d="M-24.1,419.1c2.5-3,5.6-3.2,9.2-2.4C-9,418-3.3,419,2.7,419.9c1.5,0.1,2.8,1,3.2,2.4c0.2,0.6,0.6,1.2,0.8,1.7
		c0.8,1.5,2.8,2.2,4.4,1.4c3.6-1.2,7.1-2.4,10.7-3.9l-5.5,0.9c-1.4,0.2-2.8,0.6-4.1,0.8c-2.3,0.5-4.5-0.9-5-3.1c0-0.1,0-0.2-0.1-0.3
		c0-0.6,0.2-1.2,0.7-1.5c5.9-5.3,13.1-8.8,21-10.1c0.9-0.2,1.8-0.2,2.7,0c6.7,2,13.3,4,20.2,6.1l-5,10.9c-0.3,0-0.5,0.1-0.6,0
		c-4.1-1.6-8.9-1.3-12.7,1.2c-6.1,3.3-12.4,6-18.7,9c-0.1,0-0.2,0.2-0.5,0.3h-1.7c-5.9-2.4-11.9-4.8-17.7-7.4
		c-6.3-2.8-12.7-5.6-19-8.5v-0.7H-24.1z"/>
	<g id="Layer_2_1_">
		<g id="Layer_1-2">
			<path class="st2" d="M-26.9,391.3l11.2-21L17.2,391c-1,2-2.1,3.9-3.1,5.9c-0.2,0.2-0.5,0.5-0.8,0.5c-6,0.8-11.7,3.4-16.3,7.6
				c-0.5,0.4-1,0.4-1.6,0.2C-12,400.6-19.2,396-26.9,391.3z"/>
			<path class="st2" d="M-17.2,362.7l-10.3,19.4l-2.2-1.3l11.9-22.5l31,19.5l-1.6,3L-17.2,362.7z"/>
			<path class="st2" d="M14.1,383.8l-1.6,2.9l-28.7-18.1l-10.3,19.5l-2.2-1.4l11.9-22.5L14.1,383.8z"/>
		</g>
	</g>
</g>
</svg>
