<?xml version="1.0" encoding="utf-8"?>
<!-- Generator: Adobe Illustrator 28.0.0, SVG Export Plug-In . SVG Version: 6.00 Build 0)  -->
<svg version="1.1" id="Layer_1" xmlns="http://www.w3.org/2000/svg" xmlns:xlink="http://www.w3.org/1999/xlink" x="0px" y="0px"
	 viewBox="0 0 400 217" style="enable-background:new 0 0 400 217;" xml:space="preserve">
<style type="text/css">
	.st0{fill:#F69C1F;}
	.st1{fill:#006648;}
</style>
<g>
	<g id="Page-1_5_">
		<g id="_x30_06---Meeting">
			<path id="Shape_45_" class="st0" d="M180.1,78.7c0-1.8,1.5-3.3,3.3-3.3s3.3,1.5,3.3,3.3v23.2h26.5V78.7c0-1.8,1.5-3.3,3.3-3.3
				c1.8,0,3.3,1.5,3.3,3.3v23.2h6.6V78.7c0-9.2-7.4-16.6-16.6-16.6h-19.9c-9.2,0-16.6,7.4-16.6,16.6v23.2h6.6L180.1,78.7L180.1,78.7
				z"/>
			<circle id="Oval_11_" class="st0" cx="200" cy="35.6" r="19.9"/>
			<path id="Shape_44_" class="st0" d="M270,139.4l14.8,25.7c3-2.5,4.8-6.2,4.8-10.1v-46.4c0-9.2-7.4-16.6-16.6-16.6
				c-9.1,0-16.6,7.4-16.6,16.6v7.3l0.2,0.3l4.8-8.4c0.9-1.5,2.9-2.1,4.5-1.2s2.1,2.9,1.3,4.5l-9.9,17.4c-1.2,2.1-3.4,3.3-5.8,3.3
				h-17.7c-2.7-0.1-5,1.8-5.4,4.4c-0.2,1.4,0.3,2.8,1.3,3.9c0.9,1,2.3,1.6,3.7,1.6h23.3c2.8,0,5.3-1.5,6.7-3.9l12.2-21.4
				c0.9-1.5,2.9-2.1,4.5-1.2c1.6,0.9,2.1,2.9,1.3,4.5L270,139.4z"/>
			<path id="Shape_43_" class="st1" d="M166.2,125.1c6.1-0.1,11.2,4.4,12,10.4c0.3,3.3-0.7,6.5-2.9,9c-2.2,2.4-5.3,3.8-8.6,3.8
				h-23.3c-3.3,0-6.5-1.1-9-3.2l-24.8,43h180.8l-24.8-43c-2.5,2.1-5.7,3.2-9,3.2h-23.3c-3.3,0-6.4-1.4-8.6-3.8
				c-2.2-2.4-3.3-5.7-2.9-9c0.8-6,5.9-10.5,12-10.4h17.7l1.3-2.3l-7.3-12.6c-0.6-1-1.7-1.7-2.9-1.7h-85.1c-1.2,0-2.3,0.6-2.9,1.7
				l-7.3,12.6l1.3,2.3L166.2,125.1L166.2,125.1z"/>
			<path id="Shape_42_" class="st1" d="M110.5,201.3h179c1.8,0,3.3-1.5,3.3-3.3v-3.3H107.2v3.3C107.2,199.8,108.7,201.3,110.5,201.3
				z"/>
			<circle id="Oval_10_" class="st0" cx="127.1" cy="65.4" r="19.9"/>
			<circle id="Oval_9_" class="st0" cx="272.9" cy="65.4" r="19.9"/>
			<path id="Shape_41_" class="st0" d="M134.1,106.5c1.6-0.9,3.6-0.4,4.5,1.2l4.8,8.4l0.2-0.3v-7.3c0-9.1-7.4-16.6-16.6-16.6
				c-9.2,0-16.6,7.4-16.6,16.6v46.4c0,3.9,1.7,7.6,4.8,10.1l14.8-25.7l-11.3-19.7c-0.9-1.6-0.3-3.6,1.3-4.5s3.6-0.4,4.5,1.2
				l12.2,21.4c1.4,2.4,3.9,3.9,6.7,3.9h23.3c1.4,0,2.7-0.6,3.7-1.6c1-1,1.4-2.5,1.3-3.9c-0.4-2.6-2.7-4.5-5.4-4.4h-17.7
				c-2.4,0-4.6-1.3-5.8-3.3l-9.9-17.4C132,109.4,132.6,107.4,134.1,106.5L134.1,106.5z"/>
		</g>
	</g>
</g>
</svg>
