<?xml version="1.0" encoding="utf-8"?>
<!-- Generator: Adobe Illustrator 19.1.0, SVG Export Plug-In . SVG Version: 6.00 Build 0)  -->
<svg version="1.1" id="Layer_1" xmlns="http://www.w3.org/2000/svg" xmlns:xlink="http://www.w3.org/1999/xlink" x="0px" y="0px"
	 width="400px" height="217px" viewBox="0 -8 400 217" style="enable-background:new 0 -8 400 217;" xml:space="preserve">
<style type="text/css">
	.st0{fill:#006648;}
	.st1{fill:#F69C1F;}
</style>
<g>
	<path class="st0" d="M191.7,59.4c-28.2,0-56.3,0-84.5,0.1c-1.6,0-2-0.6-2-2c0.1-6.8,0.2-13.6-0.1-20.4c-0.2-4,1.3-7,4.1-9.6
		c1.6-1.5,3.7-2.4,5.9-2.5c3-0.2,6,0,9-0.1c1.1,0,1.4,0.3,1.3,1.4c-0.1,3.7,0.1,7.4,0,11c-0.1,5,4.8,9.2,8.3,9.6
		c7,0.9,11.2-3.3,12.3-8c0.9-4,0.5-8.1,0.5-12.2c0-1.3,0.2-1.9,1.7-1.9c10.5,0.1,21.1,0.1,31.6,0c1.3,0,1.8,0.2,1.8,1.6
		c0,3.8-0.2,7.6,0.1,11.4c0.5,5.2,4.7,8.5,8.8,9c6.5,0.8,12.3-4.3,12.1-11.3c-0.1-3.1,0.1-6.1-0.1-9.2c0-1.1,0.2-1.6,1.5-1.5
		c10.7,0.1,21.5,0.1,32.2,0c1.3,0,1.5,0.5,1.5,1.6c-0.1,3.3,0.1,6.6-0.1,9.9c-0.3,7.7,8.3,13.6,15.6,9.2c3.3-2,5.3-5,5.4-8.9
		c0.1-3.3,0.1-6.7,0-10.1c-0.1-1.4,0.4-1.7,1.6-1.6c3,0.2,6.1-0.1,9.1,0.3c5,0.7,9.3,5.2,9.4,10.5c0.2,7.4,0.1,14.7,0.2,22
		c0,1.2-0.5,1.6-1.6,1.7c-0.5,0-1,0-1.5,0C247.8,59.4,219.8,59.4,191.7,59.4L191.7,59.4z"/>
	<path class="st1" d="M127.5,24.3c0-4,0-8,0-11.9c0-4.6,3.5-7.4,6.4-8c4.4-1,8.7,1.5,10.1,5.4c0.4,1.2,0.7,2.4,0.7,3.7
		c-0.1,7.4,0,14.8,0,22.3c0,4.1-1.8,6.9-5.4,8.7c-5,2.4-11.4-1.5-11.7-7.2C127.3,32.9,127.5,28.6,127.5,24.3L127.5,24.3z"/>
	<path class="st1" d="M239.7,23.6c0.2-3.6-0.5-8.1,0.3-12.5c0.8-5.2,5.2-7.7,10.1-6.6c4.8,1,6.7,4.5,6.7,8.7
		c0.1,7.6,0.1,15.2,0,22.8c-0.1,5.5-4.2,9.2-8.9,9.2c-4-0.1-8.3-3.7-8.2-9.3C239.7,32,239.7,28.2,239.7,23.6z"/>
	<path class="st1" d="M183.6,24.3c0-4.1-0.1-8.2,0-12.3c0.1-5.3,4.7-8.7,10.1-7.6c4.6,0.9,6.8,4.6,6.9,8.7c0.1,7.6,0.1,15.3,0,22.9
		c0,3.5-1.4,6.3-4.5,8c-2.7,1.5-5.5,1.6-8.1,0c-2.8-1.7-4.5-4-4.4-7.6C183.7,32.4,183.6,28.3,183.6,24.3L183.6,24.3z"/>
	<circle class="st0" cx="264.1" cy="166.1" r="30.8"/>
	<path class="st1" d="M244,169.8c-1-0.2-1.9-0.7-2.5-1.5c-0.9-1.2-0.7-3.1,0.5-4.1c0.6-0.5,1.4-0.8,2.2-1c2.4-0.5,4.9-0.1,7.2-0.1
		c2.5,0,5.1-0.1,7.6-0.1c1.1,0,1.3-0.3,1.3-1.3c-0.1-4-0.1-7.9,0-11.9c0-2.5,1.2-3.9,3.5-3.9c1.1,0,2.3,0.3,3.1,1.2
		c0.8,1.1,0.7,2.9,0.7,4.2c0,4.2,0,8.5,0,12.8c0,1,0,2-0.3,2.9c-0.8,3-4.2,3.2-6.8,3.1c-4.4-0.1-8.8-0.1-13.2-0.1
		C246.3,170,245.1,170,244,169.8z"/>
	<path class="st0" d="M275.4,64.4c-55.9,0-111.9,0-167.8,0h-2.3v3.9c0,32.4,0,64.7,0,97.1c0,1.7-0.4,3.4,0.1,5.2
		c0.8,2.6,1.8,5,4.1,6.6c2.5,1.8,5.2,2.4,8.3,2.4c38.7-0.1,77.5-0.1,116.2-0.1c-2-4.4-2.9-9.3-3.2-14c-0.3-8.2,3.9-17.5,9.6-23.2
		c8.1-8.1,20.4-11.5,31.5-8.5c2.4,0.7,4.8,1.6,6.9,2.8c0.3-13.4,0.1-26.9,0.1-40.3c0-9.5,0-18.9,0-28.4
		C279,64.4,279,64.4,275.4,64.4z M130.1,76.3c0.1-2.3,1.1-3.3,3.4-3.3c4.8-0.1,9.7-0.1,14.5,0c2.4,0,3.8,1.5,3.9,4.4
		c0.1,4,0.1,7.9,0,11.9c0,1-0.1,2.1-0.5,3c-0.6,1.5-1.6,2.5-3.3,2.5c-2.4-0.1-4.9,0-7.4,0c-2.3,0-4.6,0-7,0c-2.2,0-3.6-1.2-3.6-3.4
		C130,86.4,130,81.3,130.1,76.3z M133.9,106.7c4.6,0.1,9.2,0,13.8,0.1c2.5,0,4.1,1.5,4.2,4.1c0.1,4.4,0.1,8.8,0,13.2
		c-0.1,3.2-2.1,4.6-4.6,4.5c-4.4-0.2-8.8-0.1-13.2-0.1c-2.6,0-3.9-1.4-3.9-3.9c0-2.3,0-4.6,0-7c0-2.3,0.1-4.6,0-7
		C129.9,108.3,131.6,106.7,133.9,106.7z M151.8,158.2c-0.1,2.8-1.6,4.2-4.5,4.2c-4.6,0-9.2,0-13.8,0c-2.2,0-3.5-1.4-3.5-3.6
		c0-2.4,0-4.8,0-7.2l0,0c0-2.4-0.1-4.9,0-7.4c0.1-2.4,1.3-3.6,3.7-3.6c4.5-0.1,8.9,0.1,13.4-0.1c2.4-0.1,4.5,1.2,4.6,4.4
		C151.9,149.3,151.9,153.7,151.8,158.2z M194.1,158.4c0,2.2-1.7,3.9-3.9,3.9c-4.8,0.1-9.6,0.1-14.3,0c-2.2,0-3.5-1.4-3.5-3.5
		c-0.1-2.4,0-4.9,0-7.4c0-2.4-0.1-4.9,0-7.4c0.1-2.1,1.5-3.5,3.6-3.5c4.8-0.1,9.6-0.1,14.3,0c2.3,0,3.9,1.6,3.9,3.9
		C194.1,149.2,194.1,153.8,194.1,158.4z M194.1,124.4c0,2.5-1.7,4.1-4.2,4.2c-4.5,0-9.1,0-13.6,0c-2.7,0-4-1.2-4-4
		c0-2.3,0-4.5,0-6.8l0,0c0-2.4-0.1-4.9,0-7.4c0.1-2.4,1.2-3.6,3.5-3.6c4.8-0.1,9.6-0.1,14.3,0c2.4,0,3.9,1.6,3.9,4
		C194.1,115.3,194.1,119.8,194.1,124.4z M194.1,90.6c0,2.5-1.7,4.1-4.2,4.1c-4.5,0-9.1,0-13.6,0c-2.7,0-4-1.4-4-4
		c0.1-2.3,0-4.5,0-6.8l0,0c0-2.5-0.1-5,0-7.5c0.1-2.1,1.2-3.3,3.4-3.3c4.8-0.1,9.7-0.1,14.5,0c2.3,0,3.9,1.6,3.9,3.9
		C194.1,81.4,194.1,86,194.1,90.6z M215.2,76.6c0.1-2.4,1.2-3.6,3.5-3.6c4.8-0.1,9.6-0.1,14.3,0c2.4,0,3.9,1.6,3.9,4
		c0,4.5,0.1,9.1,0,13.6c0,2.5-1.7,4.1-4.2,4.2c-4.5,0-9.1,0-13.6,0c-2.7,0-4-1.2-4-4c0-2.3,0-4.5,0-6.8l0,0
		C215.1,81.5,215.1,79.1,215.2,76.6z M236.9,124.4c0,2.5-1.7,4.1-4.2,4.2c-4.5,0-9.1,0-13.6,0c-2.7,0-4-1.2-4-4c0-2.3,0-4.5,0-6.8
		l0,0c0-2.4-0.1-4.9,0-7.4c0.1-2.4,1.2-3.6,3.5-3.6c4.8-0.1,9.6-0.1,14.3,0c2.4,0,3.9,1.6,3.9,4
		C236.9,115.3,236.9,119.8,236.9,124.4z"/>
</g>
</svg>
