<?xml version="1.0" encoding="utf-8"?>
<!-- Generator: Adobe Illustrator 27.3.1, SVG Export Plug-In . SVG Version: 6.00 Build 0)  -->
<svg version="1.1" id="Layer_1" xmlns="http://www.w3.org/2000/svg" xmlns:xlink="http://www.w3.org/1999/xlink" x="0px" y="0px"
	 viewBox="0 0 400 207" style="enable-background:new 0 0 400 207;" xml:space="preserve">
<style type="text/css">
	.st0{fill:#006547;}
	.st1{fill:#FFFFFF;}
</style>
<path class="st0" d="M281.7,154.5H92.8c-4.3,0-7.7-3-7.7-6.6V59.5c0-3.7,3.5-6.6,7.7-6.6h188.9c4.3,0,7.7,3,7.7,6.6v88.4
	C289.3,151.6,286,154.5,281.7,154.5z"/>
<g>
	<path class="st1" d="M262.5,79.3H111.9c-1.9,0-3.4-1.5-3.4-3.4v-1.2c0-1.9,1.5-3.4,3.4-3.4h150.7c1.9,0,3.4,1.5,3.4,3.4v1.2
		C266,77.8,264.5,79.3,262.5,79.3z"/>
	<path class="st1" d="M263.2,100.9h-85.2c-1.5,0-2.7-1.1-2.7-2.5v-3c0-1.4,1.2-2.5,2.7-2.5h85.2c1.5,0,2.7,1.1,2.7,2.5v3.1
		C266,99.8,264.7,100.9,263.2,100.9z"/>
	<path class="st1" d="M263.2,120.5h-85.2c-1.5,0-2.7-1.1-2.7-2.5v-3.1c0-1.4,1.2-2.5,2.7-2.5h85.2c1.5,0,2.7,1.1,2.7,2.5v3.1
		C266,119.4,264.7,120.5,263.2,120.5z"/>
	<path class="st1" d="M264,138.2h-51.8c-1,0-1.9-1-1.9-2.2v-3.6c0-1.2,0.9-2.2,1.9-2.2H264c1,0,1.9,1,1.9,2.2v3.7
		C266,137.3,265.1,138.2,264,138.2z"/>
	<g>
		<path class="st1" d="M113.5,121.5v-21.1h12.2v3.7h-7.4v4.7h7v3.7h-7v5.4h7.8v3.7L113.5,121.5L113.5,121.5z"/>
		<path class="st1" d="M141,112.9h-2.7v-3.6h7.5v11.3c-1.1,0.5-3.6,1.1-6.9,1.1c-4,0-10.1-2-10.1-11c0-5.2,2.9-10.8,10.9-10.8
			c2.5,0,4.3,0.5,5.5,0.9l-0.3,4.1c-1.1-0.4-2.6-1.1-4.8-1.1c-5.3,0-6.2,4.8-6.2,7.2c0,4,1.8,7,5.6,7c0.7,0,1.2-0.1,1.7-0.3
			L141,112.9L141,112.9z"/>
		<path class="st1" d="M149.4,121.5v-21.1h6.8c4.5,0,7.2,2.1,7.2,6.7c0,3.6-2,6.7-6.6,6.7h-2.4v7.7H149.4z M155.7,110
			c1.6,0,2.7-1.1,2.7-3.1s-1-3-3-3h-1.3v6.1H155.7z"/>
	</g>
</g>
<g>
	<path class="st0" d="M310.5,42.6v114.5c0,0,0,0.1-0.1,0.1l-5.8,8.5c-0.5,0.8-1.7,0.8-2.2,0c-2-2.8-5.8-8.6-5.8-8.6V42.6
		c0-0.8,0.8-1.4,1.7-1.4h10.5C309.8,41.1,310.5,41.8,310.5,42.6z"/>
	<path class="st0" d="M315.5,76.4H313c-0.3,0-0.5-0.2-0.5-0.5V47c0-0.3,0.2-0.5,0.5-0.5h2.4c0.3,0,0.5,0.2,0.5,0.5v28.9
		C316,76.2,315.8,76.4,315.5,76.4z"/>
</g>
</svg>
