<?xml version="1.0" encoding="utf-8"?>
<!-- Generator: Adobe Illustrator 19.1.0, SVG Export Plug-In . SVG Version: 6.00 Build 0)  -->
<svg version="1.1" id="Layer_1" xmlns="http://www.w3.org/2000/svg" xmlns:xlink="http://www.w3.org/1999/xlink" x="0px" y="0px"
	 width="300px" height="162px" viewBox="0 0 300 162" style="enable-background:new 0 0 300 162;" xml:space="preserve">
<style type="text/css">

	.st1{fill:#175F2C;}
</style>

<g>
	<path class="st1" d="M201.4,73.8L201.4,73.8c0-14.1,0-28.3,0-42.4c0-5.9-2.9-8.8-8.9-8.8c-24.2,0-48.5,0-72.7,0c-6.2,0-9,2.8-9,8.9
		c0,10,0,20-0.1,30.1c0,1.1-0.5,2.5-1.3,3.2c-14.3,12.9-14.4,33.5-0.1,46.5c0.8,0.8,1.4,2.2,1.5,3.4c0.2,5.3,0.1,10.6,0.1,15.9
		c0,6,2.8,8.9,8.8,8.9c19.8,0,39.6,0,59.3-0.1c1.2,0,2.6-0.6,3.5-1.4c5.9-5.7,11.8-11.6,17.5-17.5c0.8-0.8,1.4-2.3,1.4-3.5
		C201.4,102.5,201.4,88.2,201.4,73.8 M181.4,131.6v-12.4h12.5C189.6,123.4,185.6,127.4,181.4,131.6 M196.3,113.9
		c-0.8,0-1.7,0.1-2.6,0.1c-4.1,0-8.2,0-12.4,0c-5.1,0-5.2,0.1-5.2,5.3c0,4.1,0,8.2,0,12.4c0,0.8-0.1,1.6-0.1,2.7h-2.9
		c-17.7,0-35.4,0-53,0c-3.6,0-4.3-0.7-4.3-4.2c0-4.5,0-9.1,0-13.6c0-0.2,0.1-0.3,0.1-0.7c17.2,5.8,31.4,2.2,40.4-14.2
		c6.1-11.2,4.7-22.7-3.3-32.6c-9.8-12-22.6-14.2-37-8.8v-5.8h80.4V113.9z M137.1,85.3v4.3h-10.3v4.3h11.5v4.9H120V77.3h17.9v4.5
		h-11.2v3.5H137.1z M196.4,49.5h-80.7c0-6.6-0.1-13,0.1-19.5c0-0.9,1.6-1.9,2.6-2.4c0.8-0.4,2-0.1,3-0.1c23.5,0,47,0,70.4,0
		c3.9,0,4.5,0.6,4.5,4.5V49.5z"/>
	<path class="st1" d="M164.9,70.3c2.3,0,4.7,0,7,0c4.7,0,9.3,0,14,0c1.8,0,2-1,2.1-2.5c0-1.5-0.4-2.5-2.1-2.5c-9.7,0-19.5,0-29.2,0
		c1.1,1.6,1.9,2.8,2.7,3.9C160.1,70.4,163.2,70.3,164.9,70.3"/>
	<path class="st1" d="M185.9,100.8c-4.7,0-9.3,0-14,0c-2.3,0-4.7,0-7,0c-1.6,0-4.8-0.1-5.5,1c-0.8,1.2-1.6,2.3-2.7,3.9
		c9.7,0,19.5,0,29.2,0c1.7,0,2.1-1,2.1-2.5C187.9,101.8,187.6,100.8,185.9,100.8"/>
	<path class="st1" d="M186.8,77.3h-22.6c-0.6,0-1.1,0.5-1.1,1.1v2.7c0,0.6,0.5,1.1,1.1,1.1h22.6c0.6,0,1.1-0.5,1.1-1.1v-2.7
		C187.9,77.8,187.4,77.3,186.8,77.3"/>
	<path class="st1" d="M186.8,89.1h-22.6c-0.6,0-1.1,0.5-1.1,1.1v2.7c0,0.6,0.5,1.1,1.1,1.1h22.6c0.6,0,1.1-0.5,1.1-1.1v-2.7
		C187.9,89.6,187.4,89.1,186.8,89.1"/>
</g>
</svg>
