<?xml version="1.0" encoding="utf-8"?>
<!-- Generator: Adobe Illustrator 19.1.0, SVG Export Plug-In . SVG Version: 6.00 Build 0)  -->
<svg version="1.1" id="Layer_1" xmlns="http://www.w3.org/2000/svg" xmlns:xlink="http://www.w3.org/1999/xlink" x="0px" y="0px"
	 viewBox="-155 316 300 162" style="enable-background:new -155 316 300 162;" xml:space="preserve">
<style type="text/css">

	.st1{fill:#175E2C;}
</style>

<g>
	<path class="st1" d="M-59.7,455.6c0.4-0.4,0.7-0.8,1.1-1.2c10.8-10.8,21.5-21.5,32.3-32.3c1.7-1.8,1.8-1.8,3.5-0.1
		c3,3,6.1,6.1,9.1,9.2c4.9,5.1,12.4,5.5,17.3,0.3c2.9-3.1,6-6,9-8.9c2-2,2.4-2,4.5,0c4.7,4.7,9.4,9.3,14.1,14
		c5.1,5.1,10.2,10.2,15.2,15.2c0.9,0.9,1.8,1.9,2.7,2.8c0.8,0.9,0.7,1.6-0.4,1.9c-1.2,0.3-2.5,0.5-3.7,0.5c-33.4,0-66.7,0-100.1,0
		C-56.8,457-58.3,456.8-59.7,455.6"/>
	<path class="st1" d="M-40.7,399.4c-4.3-4.3-8.2-8.2-12.1-12.1c-1.5-1.5-2.9-3-4.5-4.5c-1.8-1.8-1.9-2.3,0.2-4
		c5.8-4.9,11.7-9.9,17.5-14.8c9.8-8.3,19.5-16.7,29.3-25.1c2.9-2.5,6.8-2.7,10-0.4c1.7,1.2,3.3,2.6,4.9,3.9
		c5.9,5.1,11.8,10.2,17.7,15.2c6,5.1,12.1,10.1,18.1,15.2c2.5,2.1,4.8,4.2,7.3,6.3c1.1,0.9,1.2,1.9,0.1,2.9
		c-5.5,5.5-11.1,11.1-16.6,16.7c-0.1,0.1-0.2,0.1-0.7,0.2c0-1.8-0.1-3.5-0.1-5.2c0-3.8-0.1-7.7-0.1-11.5c0-2.2,0-4.4,0-6.6
		c0-2.2-1.3-3.7-3-4.8c-2.4-1.6-5.2-1.8-8-1.7c-11.1,0-22.2,0.1-33.3,0.1c-5.6,0-11.1-0.1-16.7,0c-1.8,0-3.7,0.4-5.4,1
		c-2.9,1-4.3,3.3-4.3,6.3c0,6.8,0,13.5,0,20.3C-40.4,397.6-40.5,398.3-40.7,399.4"/>
	<path class="st1" d="M-62,383.1c1.4,1.3,2.7,2.6,3.9,3.8c4.1,4.1,8.2,8.2,12.3,12.3c3.9,3.9,7.9,7.9,11.8,11.8
		c1.4,1.4,2.8,2.8,4.3,4.2c2.1,2,2.2,2.9,0.1,4.9c-10.4,10.4-20.7,20.7-31.1,31.1c-0.5,0.5-1.3,0.9-1.9,1.3c-0.3-0.7-0.8-1.5-1-2.2
		c-0.2-1.1-0.3-2.2-0.3-3.3c0-19.3,0-38.6,0-57.9C-63.9,387.1-63.6,385.1-62,383.1"/>
	<path class="st1" d="M52.2,383.4c1.4,1.6,1.7,3.7,1.7,5.8c0,19.4,0,38.8,0,58.2c0,1.4-0.2,2.8-0.5,4.2c-0.3,1.3-1,1.5-2,0.5
		c-6-6.1-12.1-12.1-18.1-18.2c-4.4-4.4-8.8-8.7-13.2-13.1c-0.1-0.1-0.2-0.2-0.3-0.3c-2.1-2.2-2.1-2.8,0.1-5c9.7-9.7,19.3-19.3,29-29
		C49.8,385.4,51,384.4,52.2,383.4"/>
	<path class="st1" d="M2.4,410.7c-2.8,1.3-5.3,1.8-8.6,1.8c-7.9,0-14.7-5.7-14.7-14.9c0-9.7,6.9-18.2,17.6-18.2
		c8.4,0,14.1,5.8,14.1,13.8c0,7-4,11.3-8.8,11.3c-2.1,0-3.8-1.2-3.9-3.9h-0.1c-1.6,2.6-3.7,3.9-6.4,3.9c-3,0-5.3-2.3-5.3-6.1
		c0-5.9,4.5-11.2,11.2-11.2c2.1,0,4.2,0.5,5.4,1.1L1.6,397c-0.6,3.2-0.1,4.7,1.3,4.7c2.2,0.1,4.9-2.8,4.9-8.3
		c0-6.6-4-11.4-11.4-11.4c-7.5,0-13.9,5.9-13.9,15.2c0,7.9,5.1,12.6,12.2,12.6c2.6,0,5.1-0.5,7-1.6L2.4,410.7z M-1.1,390.6
		c-0.5-0.1-1.1-0.3-1.9-0.3c-3.6,0-6.5,3.5-6.5,7.6c0,2,0.9,3.3,2.7,3.3c2.2,0,4.4-2.9,4.9-5.7L-1.1,390.6z"/>
</g>
</svg>
