<?xml version="1.0" encoding="utf-8"?>
<!-- Generator: Adobe Illustrator 19.1.0, SVG Export Plug-In . SVG Version: 6.00 Build 0)  -->
<svg version="1.1" id="Layer_1" xmlns="http://www.w3.org/2000/svg" xmlns:xlink="http://www.w3.org/1999/xlink" x="0px" y="0px"
	 viewBox="25 -14 253 136" style="enable-background:new 25 -14 253 136;" xml:space="preserve">
<style type="text/css">
	.st0{clip-path:url(#SVGID_1_);fill:#026744;}
	.st1{clip-path:url(#SVGID_2_);fill:#026744;}
	.st2{clip-path:url(#SVGID_3_);fill:#026744;}
	.st3{clip-path:url(#SVGID_4_);fill:#026744;}
	.st4{clip-path:url(#SVGID_5_);fill:#026744;}
	.st5{clip-path:url(#SVGID_6_);fill:#FFA100;}
	.st6{clip-path:url(#SVGID_7_);fill:#FFA100;}
</style>
<g>
	<g>
		<g>
			<defs>
				<rect id="SVGID_15_" x="33" y="-55" width="220" height="220"/>
			</defs>
			<clipPath id="SVGID_1_">
				<use xlink:href="#SVGID_15_"  style="overflow:visible;"/>
			</clipPath>
			<path class="st0" d="M156.4-3.1c-12.8,0-21,3.7-21,6.2s8.2,6.2,21,6.2s21-3.7,21-6.2C177.3,0.6,169.2-3.1,156.4-3.1"/>
		</g>
	</g>
	<g>
		<g>
			<defs>
				<rect id="SVGID_17_" x="33" y="-55" width="220" height="220"/>
			</defs>
			<clipPath id="SVGID_2_">
				<use xlink:href="#SVGID_17_"  style="overflow:visible;"/>
			</clipPath>
			<path class="st1" d="M156.4,24.9c12.8,0,21-3.7,21-6.2V8.5c-4.6,2.9-12.8,4.5-21,4.5s-16.4-1.5-21-4.5v30.4
				c9.7,6.8,16.1,18.1,16.1,30.8c0,7.9-2.5,15.3-6.7,21.4c4.7,1,10.6,1.4,16.1,1V46c0-5,7.5-8.2,16.5-9.3V24.1
				c-4.6,2.9-12.8,4.5-21,4.5c-1,0-1.8-0.8-1.8-1.8S155.4,24.9,156.4,24.9"/>
		</g>
	</g>
	<g>
		<g>
			<defs>
				<rect id="SVGID_19_" x="33" y="-55" width="220" height="220"/>
			</defs>
			<clipPath id="SVGID_3_">
				<use xlink:href="#SVGID_19_"  style="overflow:visible;"/>
			</clipPath>
			<path class="st2" d="M164.4,51.3V97c0,2.5,8.2,6.2,21,6.2s21-3.7,21-6.2V83.5c-4.6,2.9-12.8,4.5-21,4.5c-1,0-1.8-0.8-1.8-1.8
				s0.8-1.8,1.8-1.8c12.8,0,21-3.7,21-6.2V66.5c-4.6,2.9-12.8,4.5-21,4.5c-1,0-1.8-0.8-1.8-1.8s0.8-1.8,1.8-1.8
				c12.8,0,21-3.7,21-6.2v-9.8c-4.6,2.9-12.8,4.5-21,4.5C177.2,55.8,169,54.3,164.4,51.3"/>
		</g>
	</g>
	<g>
		<g>
			<defs>
				<rect id="SVGID_21_" x="33" y="-55" width="220" height="220"/>
			</defs>
			<clipPath id="SVGID_4_">
				<use xlink:href="#SVGID_21_"  style="overflow:visible;"/>
			</clipPath>
			<path class="st3" d="M185.4,39.7c-12.8,0-21,3.7-21,6.2s8.2,6.2,21,6.2s21-3.7,21-6.2S198.2,39.7,185.4,39.7"/>
		</g>
	</g>
	<g>
		<g>
			<defs>
				<rect id="SVGID_23_" x="33" y="-55" width="220" height="220"/>
			</defs>
			<clipPath id="SVGID_5_">
				<use xlink:href="#SVGID_23_"  style="overflow:visible;"/>
			</clipPath>
			<path class="st4" d="M113.8,103.8c18.8,0,34.1-15.3,34.1-34.1s-15.3-34.1-34.1-34.1S79.6,50.9,79.6,69.7
				C79.6,88.6,94.9,103.8,113.8,103.8"/>
		</g>
	</g>
	<g>
		<g>
			<defs>
				<rect id="SVGID_25_" x="33" y="-55" width="220" height="220"/>
			</defs>
			<clipPath id="SVGID_6_">
				<use xlink:href="#SVGID_25_"  style="overflow:visible;"/>
			</clipPath>
			<path class="st5" d="M131.7,65.1c-8-5.4-16.6-3.6-19.1-2.8l1.8,6.2c0.2,0.5-0.3,0.8-0.7,0.7l-17.6-6.4c-0.3-0.2-0.5-0.7-0.3-1
				L107.2,47c0.3-0.3,0.8-0.3,1,0.2l1.8,6C125.5,51.2,131.7,65.1,131.7,65.1"/>
		</g>
	</g>
	<g>
		<g>
			<defs>
				<rect id="SVGID_27_" x="33" y="-55" width="220" height="220"/>
			</defs>
			<clipPath id="SVGID_7_">
				<use xlink:href="#SVGID_27_"  style="overflow:visible;"/>
			</clipPath>
			<path class="st6" d="M95.7,75.1c8,5.4,16.6,3.6,19.1,2.8l-1.8-6.2c-0.2-0.5,0.3-0.8,0.7-0.7l17.6,6.4c0.3,0.2,0.5,0.7,0.3,1
				l-11.4,14.8c-0.3,0.3-0.8,0.3-1-0.2l-1.8-6C101.9,89,95.7,75.1,95.7,75.1"/>
		</g>
	</g>
</g>
</svg>
