<?xml version="1.0" encoding="utf-8"?>
<!-- Generator: Adobe Illustrator 28.0.0, SVG Export Plug-In . SVG Version: 6.00 Build 0)  -->
<svg version="1.1" id="Layer_1" xmlns="http://www.w3.org/2000/svg" xmlns:xlink="http://www.w3.org/1999/xlink" x="0px" y="0px"
	 viewBox="0 0 400 217" style="enable-background:new 0 0 400 217;" xml:space="preserve">
<style type="text/css">
	.st0{fill:#F79C1E;}
	.st1{fill:#00643E;}
</style>
<path class="st0" d="M250.7,172.7c-5.5,2.9-11.5,5.1-17.9,6.6c-5.5,1.3-11.7,1.8-18.4,1.8c-6.9-0.4-12.6-1.3-17.9-2.9
	c-5.5-1.5-10.8-4-15.7-7.1c-0.9-0.4-1.3-1.5-1.5-2.4c0-1.1,0.4-2,1.3-2.7l6.6-4.6c0.2-0.2,0.4-0.4,0.7-0.7c0.7-0.7,0.9-1.8,0.4-2.7
	c-0.2-0.4-0.4-1.5-1.5-2l-11.3-5.3l-36.5-17c-1.5-0.7-2.7,0-3.1,0.2c-0.4,0.2-1.3,1.1-1.3,2.7l4.6,52.4c0.2,1.5,1.3,2.2,1.8,2.4
	c0.4,0.2,1.8,0.7,3.1-0.2l7.7-5.3c0.9-0.7,2.2-0.7,3.3-0.2c11.7,6.6,25,10.8,38.3,11.7c14.6,1.1,29.6-1.5,43.3-7.7
	c6.6-3.1,12.8-7.1,18.1-11.3c4.6-4,8.8-8.4,12.4-12.8H262C258.4,168.3,254.7,170.7,250.7,172.7z"/>
<path class="st1" d="M277,59.5h-7.5l2,21.9c0,1.3-0.2,2.4-0.4,3.5c0.9,0.4,1.5,1.5,1.5,2.7v43.8c0,1.8-1.3,3.1-3.1,3.1
	c-3.5,0-7.1,1.3-9.5,4c-2.7,2.7-4,6-4,9.5c0,1.8-1.3,3.1-3.1,3.1h-62.6c2,1.3,3.5,3.1,4.2,5.5c0.2,0.9,0.2,2,0.2,2.9h82.5
	c3.3,0,6.2-2.7,6.2-6.2V65.7C283,62.2,280.3,59.5,277,59.5z"/>
<path class="st0" d="M149.4,46.2c5.5-2.9,11.5-5.1,17.9-6.6c5.7-1.3,11.7-1.8,18.4-1.8c6.9,0.4,12.6,1.3,17.9,2.9
	c5.5,1.5,10.8,4,15.7,7.1c0.9,0.4,1.3,1.5,1.5,2.4c0,1.1-0.4,2-1.3,2.7l-6.6,4.6c-0.4,0.2-0.4,0.4-0.7,0.4c-0.7,0.9-0.9,1.8-0.7,2.7
	c0.2,0.4,0.4,1.5,1.5,2l47.8,22.1c1.1,0.4,2.2,0.4,3.1-0.2c0.4-0.4,1.3-1.3,1.3-2.9l-4.6-52.4c-0.2-1.5-1.3-2.2-1.8-2.4
	c-0.4-0.2-1.8-0.7-3.1,0.2l-7.7,5.3c-0.9,0.7-2.2,0.7-3.3,0.2c-11.9-6.6-25-10.8-38.3-11.7c-14.6-1.1-29.6,1.5-43.3,7.7
	c-6.6,3.3-12.8,7.1-18.1,11.5c-4.6,4-8.8,8.4-12.4,12.8h5.5C141.7,50.7,145.4,48.2,149.4,46.2z"/>
<path class="st1" d="M141.7,128.3l35.6,16.6H250c0.7-4.2,2.4-8,5.5-10.8c2.9-3.1,6.6-4.9,10.8-5.5v-38c-1.3,0.7-2.7,1.1-4.2,1.1
	c-1.3,0-2.7-0.2-4-0.9l-35.4-16.6h-72.7c-1.3,8.4-8,15-16.4,16.4v38h0.2C136.1,127.2,139,127.2,141.7,128.3z"/>
<path class="st1" d="M129.1,134c-0.9-0.4-1.5-1.5-1.5-2.7V87.6c0-1.8,1.3-3.1,3.1-3.1c7.5,0,13.5-6.2,13.5-13.5
	c0-1.8,1.3-3.1,3.1-3.1H210c-2-1.3-3.5-3.1-4.2-5.5c-0.2-0.9-0.2-2-0.2-2.9h-82.5c-3.3,0-6.2,2.7-6.2,6.2v87.8
	c0,3.3,2.7,6.2,6.2,6.2h7.5l-2-21.9C128.6,136.2,128.8,135.1,129.1,134z"/>
<g>
	<path class="st0" d="M181.1,111.7h-10.4v6.6h11.7v5.3h-18.1V95.3h17.5v5.3h-11.1v6h10.4L181.1,111.7L181.1,111.7z"/>
	<path class="st0" d="M210.3,122.3c-2,0.7-5.7,1.5-9.5,1.5c-5.1,0-8.8-1.3-11.5-3.8s-4-6.2-4-10.2c0-9.5,6.9-14.8,16.1-14.8
		c3.8,0,6.4,0.7,7.7,1.3l-1.3,5.1c-1.5-0.7-3.5-1.3-6.6-1.3c-5.3,0-9.3,3.1-9.3,9.1c0,5.7,3.8,9.3,8.8,9.3c1.5,0,2.7-0.2,3.1-0.4v-6
		h-4.4V107h10.6v15.3H210.3z"/>
	<path class="st0" d="M215.4,95.8c2-0.4,4.6-0.7,8.6-0.7c4,0,6.9,0.7,8.6,2.2c1.8,1.3,3.1,3.8,3.1,6.6s-0.9,5.1-2.7,6.6
		c-2.2,2-5.3,2.9-9.3,2.9c-0.9,0-1.5,0-2.2-0.2v10.2h-6.4V95.8H215.4z M221.6,108.6c0.4,0.2,1.3,0.2,2.2,0.2c3.3,0,5.5-1.8,5.5-4.6
		c0-2.7-1.8-4.2-5.1-4.2c-1.3,0-2.2,0.2-2.7,0.2V108.6z"/>
</g>
</svg>
