<?xml version="1.0" encoding="utf-8"?>
<!-- Generator: Adobe Illustrator 19.1.0, SVG Export Plug-In . SVG Version: 6.00 Build 0)  -->
<svg version="1.1" id="Layer_1" xmlns="http://www.w3.org/2000/svg" xmlns:xlink="http://www.w3.org/1999/xlink" x="0px" y="0px"
	 width="400px" height="217px" viewBox="0 0 400 217" style="enable-background:new 0 0 400 217;" xml:space="preserve">
<style type="text/css">
	.st0{fill:#006648;}
	.st1{fill:#FFFFFF;}
	.st2{fill:#F69C1F;}
</style>
<g>
	<path class="st0" d="M138.6,13.7h122.7c18.5,0,33.5,15,33.5,33.5v122.7c0,18.5-15,33.5-33.5,33.5H138.6c-18.5,0-33.5-15-33.5-33.5
		V47.1C105.2,28.7,120.2,13.7,138.6,13.7"/>
	<path class="st1" d="M154.2,133.9v43.4l3.4-2c4.9-2.4,18.1-7.8,24.9-4.9c8.8,4.4,30.8,9.8,45.4,9.8h3.9c16.1-1.5,40-21,44.9-27.3
		c2.4-3.9,1-6.3,0.5-6.8c-3.4-3.9-12.2-2.4-19.5,1.5c-9.8,4.9-33.2,11.7-48.3,5.4c28.8,2,29.8-0.5,30.3-2.4c0.5-1.5,0.5-2.9,0-4.4
		c-1.5-2.9-6.8-7.8-33.7-13.2c-28.3-5.9-48.8,0-49.3,0L154.2,133.9z M159,137.8c5.4-1,22.9-4.4,45.4,0.5
		c23.4,4.9,28.8,8.8,30.3,10.3c-4.4,1-21,0-34.7-1l-6.8-0.5l4.9,4.9c17.6,17.1,53.2,4.9,62,0.5c7.3-3.4,12.7-3.4,13.7-2.9
		c0,0,0,0.5-0.5,1c-3.9,5.4-26.8,23.9-41,25.4c-13.7,1-38.1-4.9-46.9-9.3c-2-1-4.4-1.5-7.3-1.5c-6.8,0-14.2,2.4-18.6,4.4L159,137.8z
		"/>
	<path class="st1" d="M121.9,180.7h26.4v-47.4h-26.4V180.7z M126.8,138.3h16.6v37.6h-16.6V138.3z"/>
	<rect x="169.3" y="87.5" class="st2" width="12.2" height="27.8"/>
	<rect x="189.3" y="71.4" class="st2" width="12.2" height="43.4"/>
	<rect x="209.3" y="53.8" class="st2" width="12.2" height="61"/>
	<rect x="228.8" y="36.3" class="st2" width="12.2" height="79.1"/>
	<rect x="248.9" y="71.4" class="st2" width="12.2" height="43.4"/>
</g>
</svg>
