<?xml version="1.0" encoding="utf-8"?>
<!-- Generator: Adobe Illustrator 19.1.0, SVG Export Plug-In . SVG Version: 6.00 Build 0)  -->
<svg version="1.1" id="Layer_1" xmlns="http://www.w3.org/2000/svg" xmlns:xlink="http://www.w3.org/1999/xlink" x="0px" y="0px"
	 viewBox="-205 342.7 200 108.3" style="enable-background:new -205 342.7 200 108.3;" xml:space="preserve">
<style type="text/css">
	.st0{fill:#00643E;}
	.st1{clip-path:url(#SVGID_2_);fill:url(#SVGID_3_);}
	.st2{clip-path:url(#SVGID_5_);fill:url(#SVGID_6_);}
	.st3{fill:#F99B1F;}
</style>
<g>
	<g>
		<path class="st0" d="M-83.2,369.8c-0.6,0.2-1-1.3-1-1.6c-0.1-0.4-0.2-0.7-0.6-0.6c-0.6,0.2-0.2,0.7-0.2,1c0.2,0.3,0.2,1.3,0.2,1.3
			s-0.1,0.4-0.4,0.5c-1,0.2-0.9-1.9-0.9-1.9s-0.2-0.3-0.4-0.4c-0.2,0-0.6,0.5-0.6,0.5s0.2,0.8,0.6,2c0.4,1.3,1.4,1,1.8,0.9
			c0.5-0.2,0.6-0.9,0.8-0.9c0.2-0.1,1.4,0.2,1.5-0.5c0.4-1.4-0.6-2.7-0.8-3.1s-0.6,0-0.6,0C-83.4,367.8-82.7,369.5-83.2,369.8
			 M-53.2,363.2c-1,0.3-1.9,1.5-1.9,2.7c-0.1,1.3,1.7,1.8,1.7,1.8s-0.5,0.8-0.2,1.6c0.2,0.6,0.2,0.4,0.2,0.4
			c0.6-1.6,1.8-2.2,2.4-2.4c0.6-0.2,0.6-0.5,0.6-0.5s0.5-1.7,0.2-1.7c-0.2,0-1.2,0.5-1.6,0.6c-0.3,0.2-1.2,0.4-1.5,0.1
			c-0.5-0.8,0.6-0.8,0.7-0.8s0.6,0,1.4-0.6c0.3-0.2,0.2-0.5,0.1-0.8C-51.3,363.6-52.1,362.9-53.2,363.2 M-56.7,363.5
			c0.2,0,2.4-1.7,4.4-2.8c0.4-0.2,0.8-0.8,0.7-1.5c0-0.1-2.8,1-5.4,3.3C-57.6,363-56.8,363.5-56.7,363.5 M-92.4,369.9
			c3.7-1.5,5.9-4.1,6.7-5.3l0.6,0.5c0,0,0.8-0.4,0.6-2.4l-0.5-0.6c0,0,0.6-1.6-0.3-2.4c-0.9-0.9-2.2,0.3-2.4,0.8
			c-0.3,0.5-1,1.9,0.9,3.6c0,0-1.8,3.1-7.1,5.6c0,0-0.2,0.1-0.2,0.2C-94,370.3-93.6,370.5-92.4,369.9 M-86.4,361.2
			c0.5-0.5,1.4,0.6,0.2,1.2C-86.4,362.4-86.9,361.6-86.4,361.2 M-49.9,375.9l3-3.1c0,0,0.2,8.4,0,10.4c-0.2,2,1.2-0.9,1.4-3.1
			c0.2-2.4,0.1-8.8,0.1-8.8s7.8-7.7,8.7-11.6c0.2-1-0.4-0.7-0.6-0.4c-0.2,0.3-6.2,8.3-8.2,9.8l-0.6-4.1c0,0,0.2-0.5,0.5-0.3
			c0.3,0.2,0.4,0.4,0.6,0.3c0.2-0.2,0.2-0.4,0.2-0.4l-1.9-4.9c0,0-0.2-0.4-0.4-0.2c-0.2,0.2-1,1.9-1,1.9s1.5,5.6,1,9.1l-4.1,4l-9-9
			c0,0-0.3-0.6,0.2-0.6c0.6-0.1,0.6-0.4,0.2-0.6c-0.5-0.2-4.6-2.8-4.6-2.8l0.2,2.7l11.8,12.1c0,0-2.2,1.6-2.1,4.1
			c0.1,2.4,0.9,2.7,2,2.7c1,0.1,3.4-0.7,3.6-3.6C-48.8,377-49.9,375.9-49.9,375.9 M-51.4,380c-1,0.2-1.5-0.2-1.5-0.5
			c0-0.4,0.6-2,1.9-2.4c0,0,1,0.9,1,1.3C-50.1,378.8-50.4,379.9-51.4,380 M-57.6,379.4c-0.1-3.1-3.4-3.4-3.4-3.4
			c0.3-0.2,1-1.5,1.2-3.7c0.2-2.4-1-4.4-1.5-4.4c-0.3-0.1-1.5,3.6-1.9,5.3c-0.2,1.6-1,1.8-1,1.8c-0.6,0.6-2,1.1-5.9,1.6
			c-3.9,0.5-6.2-1.4-7-3.1c-0.7-1.8-2-13.5-2.2-14.2c-0.2-0.6-0.4-0.5-0.6-0.2c-0.2,0.3-0.4,3.4-0.2,5.5c0.1,2.2,0.8,4.9,1,6.7
			c0.2,2.7-1.9,4.2-2.8,4.4s-1,0.6-1,0.6s-0.4,2-0.2,2.1s3,0.1,3.3,0.2c0.3,0.1,1.2,0.2,1,0.6c-0.2,0.3-2,2.6-6.2,3.4
			c-1.4,0.2-2.9,0.3-4.1,0.1c-1.4-0.4-2.2-1.2-2.6-1.7c-1.9-3.1,0.5-6.4,0.2-6.7c-0.6-0.9-2.5,2.7-2.4,4.5c0.1,2.6,2,4.8,3,5.3
			c4.1,1.7,7.1,0.4,8.2-0.1c4.5-1.9,5.6-5.2,5.4-6.1c-0.2-1-1.1-1.3-1.5-1.3c-0.3-0.1-0.3-0.4-0.2-0.6c0.1-0.2,0.4-0.4,0.9,0
			c0.6,0.6,2.2,3.1,6.4,3.3c2.4,0.2,5.5-0.8,5.8-0.9c0.3-0.2,1.8-1,2-0.1c0.2,1.3,0.6,3.6,3.6,4.1
			C-59.7,382.3-57.6,382.5-57.6,379.4 M-61.4,371.8c0.2-0.1,0.7,0.6,0.4,1.4c-0.3,0.8-0.6,1.3-1.1,0.9
			C-62.7,373.7-62,372-61.4,371.8 M-61,379.6c-0.4-0.2-1-0.9-0.7-1.3c0.2-0.2,2.2,0,2.4,1C-59.3,379.9-60.6,379.8-61,379.6
			 M-74.4,382.6c0.5-0.2,0.8-0.8,0.7-1.5c0-0.1-2.8,1-5.4,3.3c-0.6,0.5,0.2,1.1,0.3,1C-78.8,385.4-76.6,383.7-74.4,382.6"/>
	</g>
	<g>
		<path class="st0" d="M-76.3,386.7h3v21.2H-76l-15-16.2v16.2h-3v-21.2h2.6l15.1,16.4L-76.3,386.7L-76.3,386.7z"/>
		<path class="st0" d="M-60.8,407.8h-7.6v-21.2h5.8c1.9,0,3.3,0.2,4.4,0.7c1,0.5,1.9,1.1,2.4,1.9c0.6,0.8,0.8,1.7,0.8,2.8
			c0,2-1.1,3.6-3.4,4.4c1.7,0.3,3,0.9,4,1.9c1,1,1.5,2.1,1.5,3.5c0,1.1-0.2,2-0.9,2.9c-0.6,0.9-1.5,1.5-2.6,2
			C-57.6,407.6-59.1,407.8-60.8,407.8z M-62.4,389.4h-2.8v6.4h2.2c1.8,0,3-0.3,3.7-0.9c0.7-0.6,1-1.4,1-2.4
			C-58.3,390.5-59.6,389.4-62.4,389.4z M-62.1,398.6h-3v6.7h3.2c1.8,0,3-0.2,3.6-0.4s1-0.6,1.5-1.3c0.4-0.5,0.6-1.1,0.6-1.7
			c0-0.6-0.2-1.3-0.6-1.7c-0.4-0.5-1-0.9-1.8-1.2C-59.4,398.7-60.5,398.6-62.1,398.6z"/>
		<path class="st0" d="M-49.8,386.7h12.7v2.7h-9.5v6.4h9.3v2.7h-9.3v6.6h9.8v2.7h-13.1L-49.8,386.7L-49.8,386.7z"/>
	</g>
	<g>
		<g>
			<g>
				<g>
					<g>
						<g>
							<defs>
								<path id="SVGID_1_" d="M-159,376.2c-0.2,0.9-0.2,1.9-0.2,2.8c0,9.8,8.4,17.9,19,17.9c10.5,0,19-7.9,19-17.8
									c0-1-0.1-1.9-0.2-2.8L-159,376.2L-159,376.2z"/>
							</defs>
							<clipPath id="SVGID_2_">
								<use xlink:href="#SVGID_1_"  style="overflow:visible;"/>
							</clipPath>
							
								<radialGradient id="SVGID_3_" cx="-3183.9314" cy="27.9122" r="1.487" gradientTransform="matrix(80.7933 0 0 75.9919 257045.0625 -1750.3021)" gradientUnits="userSpaceOnUse">
								<stop  offset="0" style="stop-color:#FCEE23"/>
								<stop  offset="5.493160e-003" style="stop-color:#FCEE23"/>
								<stop  offset="9.369151e-002" style="stop-color:#FBE824"/>
								<stop  offset="0.1966" style="stop-color:#FADE25"/>
								<stop  offset="0.307" style="stop-color:#F8CE26"/>
								<stop  offset="0.4226" style="stop-color:#F6B727"/>
								<stop  offset="0.5422" style="stop-color:#F49A27"/>
								<stop  offset="0.6636" style="stop-color:#F27725"/>
								<stop  offset="0.7253" style="stop-color:#F16024"/>
								<stop  offset="1" style="stop-color:#F16024"/>
							</radialGradient>
							<rect x="-159.3" y="376.2" class="st1" width="37.9" height="20.7"/>
						</g>
					</g>
				</g>
			</g>
		</g>
	</g>
	<g>
		<g>
			<g>
				<g>
					<g>
						<g>
							<defs>
								<path id="SVGID_4_" d="M-159.2,402.8v24.8c0,6.1,4.6,7.2,7.1,7.4h1.5v-32.2C-150.5,402.8-159.2,402.8-159.2,402.8z
									 M-144.7,434.9h8.6v-32.2h-8.6V434.9z M-130.1,402.8V435h1.5c2.4-0.2,6.7-1.2,7.1-6.6v-25.6
									C-121.5,402.8-130.1,402.8-130.1,402.8z"/>
							</defs>
							<clipPath id="SVGID_5_">
								<use xlink:href="#SVGID_4_"  style="overflow:visible;"/>
							</clipPath>
							
								<radialGradient id="SVGID_6_" cx="-3178.3347" cy="30.6737" r="1.4875" gradientTransform="matrix(67.381 0 0 63.3766 213980.6094 -1554.7256)" gradientUnits="userSpaceOnUse">
								<stop  offset="0" style="stop-color:#FCEE23"/>
								<stop  offset="5.493160e-003" style="stop-color:#FCEE23"/>
								<stop  offset="0.5855" style="stop-color:#F38E26"/>
								<stop  offset="0.8791" style="stop-color:#F16024"/>
								<stop  offset="1" style="stop-color:#F16024"/>
							</radialGradient>
							<rect x="-159.2" y="402.8" class="st2" width="37.7" height="32.2"/>
						</g>
					</g>
				</g>
			</g>
		</g>
	</g>
	<path class="st0" d="M-116.4,358.7h-48c-6.4,0-11.5,4.9-11.5,10.8v45.7c0,5.6,3.5,10.3,9.4,10.8v-58.4h52.3v58.5
		c5.7-0.6,9.3-5.3,9.3-10.7v-45.9C-104.8,363.5-110,358.7-116.4,358.7"/>
</g>
<path class="st3" d="M-96.4,421.4v-10h3.2c0.9-0.1,1.7,0.2,2.3,0.8c0.6,0.5,0.9,1.3,0.9,2.1c0,0.5-0.2,1.1-0.4,1.6
	c-0.3,0.4-0.7,0.8-1.2,0.9c-0.7,0.2-1.4,0.4-2.2,0.3h-1.1v4.3L-96.4,421.4L-96.4,421.4z M-93.5,412.7H-95v3.1h1.6
	c0.5,0.1,1-0.2,1.4-0.4c0.4-0.3,0.6-0.7,0.5-1.2C-91.5,413.2-92.2,412.7-93.5,412.7z"/>
<path class="st3" d="M-89.7,411.4h1.4v4.2c0.5-0.6,1.2-1,2.1-1c0.4,0,0.9,0.2,1.2,0.3c0.4,0.2,0.6,0.5,0.8,0.9
	c0.2,0.5,0.3,1.1,0.2,1.7v3.8h-1.4v-4.1c0-0.4-0.2-0.9-0.4-1.1c-0.2-0.3-0.6-0.5-1-0.4c-0.3,0-0.6,0.1-0.8,0.2
	c-0.3,0.2-0.6,0.5-0.9,0.7v4.7h-1.4L-89.7,411.4L-89.7,411.4z"/>
<path class="st3" d="M-79.8,414.8c1,0,1.9,0.3,2.6,0.9c0.6,0.6,1,1.5,1,2.4c0,0.9-0.4,1.7-1,2.4c-0.6,0.6-1.7,0.9-2.6,0.9
	c-0.9,0-1.8-0.3-2.5-0.9c-1.4-1.3-1.4-3.4-0.1-4.7c0,0,0,0,0.1-0.1C-81.7,415.1-80.7,414.7-79.8,414.8z M-79.9,416
	c-0.6,0-1.1,0.2-1.6,0.6c-0.4,0.4-0.6,0.9-0.6,1.6s0.2,1.1,0.6,1.6c0.4,0.4,1,0.6,1.6,0.6c0.6,0,1.1-0.2,1.6-0.6
	c0.9-0.9,0.9-2.2,0-3.1C-78.6,416.2-79.2,416-79.9,416L-79.9,416z"/>
<path class="st3" d="M-74.2,414.8v0.9c0.5-0.6,1.2-0.9,2-0.9c0.4,0,0.8,0.2,1.1,0.3c0.4,0.2,0.6,0.5,0.8,0.9
	c0.2,0.5,0.3,1.1,0.3,1.7v3.8h-1.3v-3.8c0.1-0.5-0.1-1-0.3-1.4c-0.2-0.3-0.6-0.5-1-0.4c-0.6,0-1.3,0.4-1.6,0.9v4.7h-1.4v-6.7
	L-74.2,414.8z"/>
<path class="st3" d="M-63.1,418.2h-4.7c0,0.5,0.2,1.1,0.6,1.5c0.4,0.4,1,0.6,1.5,0.5c0.9,0,1.8-0.3,2.5-0.8v1.3
	c-0.4,0.2-0.8,0.5-1.2,0.6c-0.5,0.2-0.9,0.2-1.4,0.2c-0.6,0-1.3-0.2-1.8-0.5c-0.5-0.3-0.9-0.7-1.1-1.2c-0.3-0.5-0.4-1.1-0.4-1.7
	c-0.1-0.9,0.2-1.7,0.9-2.4c0.6-0.6,1.4-0.9,2.2-0.9c0.8-0.1,1.6,0.3,2.2,0.9c0.6,0.7,0.9,1.6,0.8,2.4L-63.1,418.2z M-67.8,417.5h3.4
	c0-0.4-0.2-0.9-0.5-1.2c-0.3-0.3-0.7-0.4-1.1-0.4s-0.9,0.2-1.1,0.4C-67.5,416.5-67.7,416.9-67.8,417.5z"/>
<path class="st3" d="M-51.3,419.1v1.6c-1.1,0.6-2.5,0.9-3.8,0.9c-1,0.1-2-0.2-2.9-0.6c-1.6-0.9-2.6-2.6-2.6-4.4
	c0-1.4,0.6-2.7,1.6-3.7c1-0.9,2.5-1.5,3.9-1.5c1.2,0.1,2.5,0.3,3.5,0.9v1.6c-1-0.6-2.2-0.9-3.4-1c-1-0.1-2.2,0.4-2.9,1
	c-1.5,1.5-1.5,3.9,0,5.4c0.8,0.7,1.8,1.1,3,1.1C-53.6,420.1-52.4,419.8-51.3,419.1z"/>
<path class="st3" d="M-46.2,417.5v2.7c0,0.2,0.1,0.4,0.2,0.4c0.3-0.1,0.6-0.2,0.7-0.4v0.8c-0.2,0.2-0.5,0.3-0.7,0.4
	c-0.2,0.1-0.4,0.2-0.6,0.2c-0.6,0-0.9-0.2-1-0.6c-0.5,0.4-1.1,0.6-1.8,0.6c-0.4,0-0.9-0.2-1.1-0.5c-0.3-0.3-0.5-0.7-0.5-1.1
	s0.2-0.9,0.5-1.1c0.4-0.4,0.8-0.6,1.3-0.8l1.7-0.6v-0.4c0.1-0.6-0.3-1.1-0.9-1.2c-0.2,0-0.2,0-0.3,0c-0.9,0.1-1.6,0.5-2.2,1.1v-1.4
	c0.6-0.6,1.4-0.9,2.2-0.9c0.6-0.1,1.2,0.2,1.8,0.5c0.2,0.2,0.3,0.3,0.4,0.5c0.2,0.2,0.2,0.4,0.2,0.6
	C-46.2,416.7-46.2,417.1-46.2,417.5z M-47.5,420.1v-2l-0.9,0.4c-0.4,0.2-0.6,0.3-1,0.5c-0.4,0.4-0.4,0.9,0,1.3
	c0.2,0.2,0.4,0.2,0.6,0.2C-48.3,420.5-47.8,420.4-47.5,420.1z"/>
<path class="st3" d="M-45.2,420.9v-1.4c0.4,0.2,0.7,0.4,1.1,0.6c0.3,0.2,0.6,0.2,1,0.2c0.2,0,0.5-0.1,0.7-0.2
	c0.2-0.2,0.3-0.3,0.3-0.5s-0.1-0.4-0.2-0.5c-0.2-0.2-0.6-0.4-0.9-0.5c-0.6-0.3-1.2-0.7-1.7-1.2c-0.2-0.3-0.4-0.6-0.4-1.1
	s0.2-0.9,0.6-1.3c0.4-0.4,1-0.5,1.5-0.5c0.7,0,1.4,0.2,2,0.5v1.3c-0.6-0.4-1.2-0.6-1.9-0.7c-0.2,0-0.4,0.1-0.6,0.2
	c-0.2,0.1-0.2,0.2-0.2,0.4s0.1,0.3,0.2,0.4c0.2,0.2,0.5,0.4,0.7,0.5l0.5,0.2c1.1,0.6,1.7,1.3,1.7,2c0,0.5-0.2,1-0.6,1.3
	c-0.5,0.4-1,0.5-1.7,0.5c-0.4,0-0.7-0.1-1-0.2C-44.4,421.2-44.8,421.1-45.2,420.9z"/>
<path class="st3" d="M-39.8,411.4h1.4v4.2c0.5-0.6,1.3-1,2.1-1c0.4,0,0.9,0.2,1.2,0.3c0.4,0.2,0.6,0.5,0.8,0.9
	c0.2,0.5,0.3,1.1,0.2,1.7v3.8h-1.4v-4.1c0-0.4-0.2-0.9-0.4-1.1c-0.2-0.2-0.6-0.5-1-0.4c-0.3,0-0.6,0.1-0.9,0.2
	c-0.3,0.2-0.6,0.5-0.9,0.7v4.7H-40L-39.8,411.4z"/>
</svg>
