<?xml version="1.0" encoding="utf-8"?>
<!-- Generator: Adobe Illustrator 19.1.0, SVG Export Plug-In . SVG Version: 6.00 Build 0)  -->
<svg version="1.1" id="Layer_1" xmlns="http://www.w3.org/2000/svg" xmlns:xlink="http://www.w3.org/1999/xlink" x="0px" y="0px"
	 width="400px" height="207px" viewBox="26 0 400 207" style="enable-background:new 26 0 400 207;" xml:space="preserve">
<style type="text/css">
	.st1{fill:#026744;}
</style>
<g id="Layer_2_1_">
	<g>
		<g id="Layer_1-2_1_">
			<path class="st1" d="M152.1,196.7c-6.1,0-7-1.4-6.1-7c1.4-9.8,2.7-18.7,4.6-28.5c1.4-6.1,4.6-11.2,10.2-13.9
				c10.2-5.6,20.5-11.2,31.2-16.3c2.4-0.5,4.6,0.5,6.5,1.9c15.4,12.1,34.1,13.9,49.9,3.7c2.4-1.4,4.6-2.7,6.5-4.6
				c1.9-1.9,4.6-1.9,6.5-0.5c9.3,4.6,18.7,9.8,28,14.4c7,3.7,12.1,10.2,13.1,18.7c0.9,8,2.4,16.3,3.7,24.8c0.9,5.6-0.5,7-6.1,7
				h-73.8L152.1,196.7z"/>
			<path class="st1" d="M258.9,99.2c-0.9,2.4-10.7,26.6-31.2,27c-17.7,0.5-29.9-16.8-34.1-28.9c-1.4-3.7-5.1-15.4,0.5-29.4
				c4.6-12.1,17.3-28,34.5-27c20,0.9,29.9,23.8,30.7,25.6C264.9,81.9,260.3,95.5,258.9,99.2z"/>
		</g>
	</g>
</g>
</svg>
