<?xml version="1.0" encoding="utf-8"?>
<!-- Generator: Adobe Illustrator 19.1.0, SVG Export Plug-In . SVG Version: 6.00 Build 0)  -->
<svg version="1.1" id="Capa_1" xmlns="http://www.w3.org/2000/svg" xmlns:xlink="http://www.w3.org/1999/xlink" x="0px" y="0px"
	 width="400px" height="217px" viewBox="112 -8.5 400 217" style="enable-background:new 112 -8.5 400 217;" xml:space="preserve">
<style type="text/css">
	.st0{fill:#00653F;}
	.st1{fill:#F79C1E;}
</style>
<g>
	<path class="st0" d="M327,6c-31.5,0-57.2,25.9-57.2,57.6s25.7,57.7,57.2,57.7s57.2-25.9,57.2-57.7C384.2,31.9,358.5,6,327,6z
		 M345.2,77.6c-0.7,4.2-2.9,8.2-6,11.1c-2.2,2-4.7,3.4-7.4,4.2v2.5c0,3-2.5,5.5-5.5,5.5s-5.5-2.5-5.5-5.5v-1.9
		c-3.6-0.4-6.5-1.5-10.6-4.1c-2.5-1.7-3.3-5.1-1.6-7.6c1.7-2.5,5.1-3.3,7.6-1.6c3.7,2.4,5.1,2.6,10,2.6c4.8,0,7.5-3.6,8.1-6.9
		c0.3-1.6,0.4-5.5-4.5-7.2c-5.7-2-11.5-4.3-15.6-7.5c-4-3.2-5.9-8.7-4.8-14.3c1.2-6.1,5.4-11,11.2-12.7c0,0,0.1,0,0.1,0V32
		c0-3,2.5-5.5,5.5-5.5s5.5,2.5,5.5,5.5v1.7c3.7,0.9,6.4,2.6,7.4,3.4c2.4,1.8,2.9,5.2,1.1,7.7c-1.8,2.4-5.3,2.9-7.7,1.1
		c-1.1-0.8-4.3-2.6-8.8-1.3c-2.7,0.8-3.3,3.4-3.5,4.2c-0.3,1.5,0,3,0.8,3.6c2.8,2.2,7.9,4.1,12.4,5.8
		C341.9,61.2,346.6,69,345.2,77.6z"/>
	<path class="st1" d="M345.2,77.6c-0.7,4.2-2.9,8.2-6,11.1c-2.2,2-4.7,3.4-7.4,4.2v2.5c0,3-2.5,5.5-5.5,5.5s-5.5-2.5-5.5-5.5v-1.9
		c-3.6-0.4-6.5-1.5-10.6-4.1c-2.5-1.7-3.3-5.1-1.6-7.6c1.7-2.5,5.1-3.3,7.6-1.6c3.7,2.4,5.1,2.6,10,2.6c4.8,0,7.5-3.6,8.1-6.9
		c0.3-1.6,0.4-5.5-4.5-7.2c-5.7-2-11.5-4.3-15.6-7.5c-4-3.2-5.9-8.7-4.8-14.3c1.2-6.1,5.4-11,11.2-12.7c0,0,0.1,0,0.1,0V32
		c0-3,2.5-5.5,5.5-5.5s5.5,2.5,5.5,5.5v1.7c3.7,0.9,6.4,2.6,7.4,3.4c2.4,1.8,2.9,5.2,1.1,7.7c-1.8,2.4-5.3,2.9-7.7,1.1
		c-1.1-0.8-4.3-2.6-8.8-1.3c-2.7,0.8-3.3,3.4-3.5,4.2c-0.3,1.5,0,3,0.8,3.6c2.8,2.2,7.9,4.1,12.4,5.8
		C341.9,61.2,346.6,69,345.2,77.6z"/>
	<path class="st0" d="M238.9,139.8h-12.6c-3,0-5.5,2.5-5.5,5.5v43.1c0,3,2.5,5.5,5.5,5.5h12.6V139.8L238.9,139.8z"/>
	<path class="st0" d="M401.6,139.4c-10.3-10.3-27.1-10.3-37.4,0l-16.5,16.5l-6.8,6.8c-2.7,2.7-6.4,4.3-10.3,4.3h-32.9
		c-3,0-5.5-2.3-5.7-5.2c-0.1-3.2,2.4-5.8,5.5-5.8h33.4c6.7,0,12.6-4.8,13.7-11.4c0.3-1.5,0.4-3.1,0.4-4.7c0-3-2.5-5.5-5.5-5.5h-18.3
		c-6,0-11.7-2.7-17.8-5.6c-6.4-3-13-6.1-20.7-6.6c-6.8-0.4-13.5,0.3-20.1,2.2c-7,2-12.1,8.3-12.7,15.5c0,0,0,0-0.1,0V194l94.8,0
		c6.5,0,12.7-2.5,17.3-7.2l39.5-39.6C403.7,145.1,403.7,141.6,401.6,139.4L401.6,139.4z"/>
</g>
</svg>
